<?xml version="1.0" standalone="no"?>
<!DOCTYPE svg PUBLIC "-//W3C//DTD SVG 20010904//EN"
 "http://www.w3.org/TR/2001/REC-SVG-20010904/DTD/svg10.dtd">
<svg version="1.0" xmlns="http://www.w3.org/2000/svg"
 width="500pt" height="500pt" viewBox="0 0 400.000000 400.000000"
 preserveAspectRatio="xMidYMid meet">
<metadata>
Created by potrace 1.16, written by Peter Selinger 2001-2019
</metadata>
<g transform="translate(0.000000,500.000000) scale(0.100000,-0.100000)"
fill="#E8D388" stroke="none">
<path d="M3034 4429 c-129 -67 -301 -177 -404 -259 -91 -73 -250 -230 -326
-323 -74 -91 -180 -263 -230 -375 -20 -42 -42 -92 -51 -111 -23 -52 -103 -302
-103 -324 0 -23 -38 -79 -50 -72 -4 3 -25 35 -45 73 -85 154 -254 352 -288
339 -18 -7 -25 -51 -31 -202 -3 -60 -9 -133 -14 -160 -11 -55 -54 -192 -77
-240 -7 -16 -23 -55 -35 -85 -12 -30 -27 -68 -35 -85 -49 -112 -115 -327 -140
-455 -80 -403 9 -745 258 -992 123 -123 282 -211 482 -267 65 -18 106 -26 255
-51 83 -13 452 -10 550 5 265 40 420 114 581 274 92 92 158 186 210 297 31 68
36 78 58 139 14 39 41 152 45 190 22 182 17 265 -21 435 -8 36 -16 72 -18 81
-4 21 -73 227 -85 257 -6 12 -14 32 -19 45 -27 64 -114 346 -141 456 -17 69
-34 140 -38 156 -5 20 -15 31 -28 33 -18 3 -25 -9 -48 -75 -50 -144 -43 -144
-90 -3 -57 168 -73 205 -151 356 -62 122 -66 133 -71 214 -5 75 -1 118 21 235
19 101 104 301 190 450 36 63 45 105 21 105 -8 0 -67 -28 -132 -61z m-144
-1829 c65 -15 129 -49 175 -95 35 -34 74 -97 77 -122 0 -5 7 -30 15 -56 15
-50 16 -137 2 -197 -4 -19 -10 -48 -13 -65 -3 -16 -10 -48 -16 -70 -6 -22 -14
-50 -17 -63 -3 -12 -9 -25 -14 -28 -5 -3 -9 -12 -9 -20 0 -20 -108 -244 -118
-244 -4 0 -15 13 -25 29 -24 42 -72 55 -176 48 -89 -5 -184 -33 -276 -79 -58
-30 -191 -77 -232 -83 -15 -2 -46 -7 -68 -13 -22 -5 -53 -7 -70 -5 -24 4 -28
2 -17 -9 9 -9 45 -13 115 -13 126 0 164 7 256 45 184 76 396 122 415 91 7 -11
-32 -143 -63 -211 -19 -42 -81 -125 -148 -199 l-49 -54 -111 -5 c-61 -2 -145
-1 -185 2 l-74 7 -82 123 c-45 68 -92 132 -105 142 -12 10 -16 12 -9 4 6 -8
12 -20 12 -27 0 -12 19 -56 81 -188 18 -38 33 -74 34 -80 0 -5 6 -20 13 -32
12 -22 17 -23 177 -23 91 0 165 -3 165 -8 0 -4 -10 -16 -22 -26 -13 -11 -50
-42 -83 -71 -33 -28 -72 -59 -86 -69 l-27 -17 -82 83 c-110 111 -251 281 -333
401 -37 54 -67 100 -67 103 0 3 -8 18 -19 32 -29 41 -104 190 -143 284 -57
136 -79 241 -79 383 0 108 3 128 24 176 30 67 106 141 171 169 39 16 71 21
145 21 108 0 167 -19 262 -82 51 -34 126 -120 142 -161 11 -31 41 -19 72 30
72 115 166 189 285 225 93 28 119 30 180 17z"/>
<path d="M2353 2246 c-35 -12 -78 -44 -70 -53 3 -2 14 0 25 6 44 24 102 3 102
-35 0 -19 -104 -124 -122 -124 -27 0 -154 -68 -180 -97 -29 -30 -49 -93 -30
-93 6 0 15 6 19 13 13 22 173 95 173 79 0 -15 -83 -59 -190 -102 -128 -50
-159 -68 -180 -103 -22 -36 -25 -84 -7 -108 7 -9 30 -28 51 -43 87 -58 220
-26 406 100 57 38 115 77 129 87 64 43 171 87 212 87 49 0 107 -31 158 -85 19
-19 36 -33 38 -31 3 2 -4 24 -15 48 -22 48 -71 102 -114 124 -24 12 -27 18
-18 34 17 31 -24 105 -79 143 -41 28 -54 32 -113 32 -56 0 -65 2 -58 15 33 62
-60 134 -137 106z m255 -200 c30 -15 48 -45 55 -88 4 -24 1 -28 -21 -28 -59 0
-195 -63 -312 -145 -135 -94 -174 -118 -229 -136 -76 -26 -111 -22 -131 13
-22 41 -6 57 102 103 126 53 207 102 301 183 132 112 174 130 235 98z"/>
</g>
</svg>
